<?xml version="1.0" encoding="UTF-8" standalone="no"?> <svg width="64" height="64" viewBox="0 0 64 64" fill="none" xmlns="http://www.w3.org/2000/svg">
<path d="M56.4501 14.9999C55.7801 -0.870053 8.21005 -0.860053 7.55005 14.9999V48.9999C7.55005 55.7099 18.28 60.9999 31.97 60.9999H32C45.2701 60.9999 55.75 56.0699 56.39 49.6799C56.47 49.4699 56.39 15.5799 56.39 15.3399C56.39 15.0999 56.4501 15.0899 56.4501 14.9999ZM32 4.99995C44.17 4.99995 54.4501 9.55995 54.4501 14.9999C54.4501 20.4399 44.17 24.9999 32 24.9999C19.83 24.9999 9.55005 20.3599 9.55005 14.9999C9.55005 9.63995 19.83 4.99995 32 4.99995ZM54.4501 48.9999C54.4501 51.5099 52.2301 53.8299 48.6301 55.6099V34.7699C48.6301 34.5047 48.5247 34.2504 48.3372 34.0628C48.1496 33.8753 47.8953 33.7699 47.6301 33.7699C47.3648 33.7699 47.1105 33.8753 46.9229 34.0628C46.7354 34.2504 46.6301 34.5047 46.6301 34.7699V56.5199C44.7456 57.2372 42.8014 57.786 40.82 58.1599V36.9399C40.82 36.6747 40.7147 36.4204 40.5272 36.2328C40.3396 36.0453 40.0853 35.9399 39.82 35.9399C39.5548 35.9399 39.3005 36.0453 39.1129 36.2328C38.9254 36.4204 38.82 36.6747 38.82 36.9399V58.4999C36.8929 58.7923 34.9488 58.9593 33 58.9999V37.5699C33 37.3047 32.8947 37.0504 32.7072 36.8628C32.5196 36.6753 32.2653 36.5699 32 36.5699C31.7348 36.5699 31.4805 36.6753 31.2929 36.8628C31.1054 37.0504 31 37.3047 31 37.5699V58.9999C29.0517 58.9659 27.1076 58.8056 25.18 58.5199V36.9399C25.18 36.6747 25.0747 36.4204 24.8872 36.2328C24.6996 36.0453 24.4453 35.9399 24.18 35.9399C23.9148 35.9399 23.6605 36.0453 23.4729 36.2328C23.2854 36.4204 23.18 36.6747 23.18 36.9399V58.1599C21.1987 57.786 19.2545 57.2372 17.37 56.5199V34.7699C17.37 34.5047 17.2647 34.2504 17.0772 34.0628C16.8896 33.8753 16.6353 33.7699 16.37 33.7699C16.1048 33.7699 15.8505 33.8753 15.6629 34.0628C15.4754 34.2504 15.37 34.5047 15.37 34.7699V55.6499C11.77 53.8699 9.55005 51.5499 9.55005 49.0399V27.0399C17.41 36.4799 46.6001 36.4799 54.4501 27.0399V48.9999Z" fill="black"/>
<path d="M32.0001 20.5899C38.2201 20.5899 42.9001 18.1699 42.9001 14.9599C42.7801 7.50994 21.2101 7.50994 21.1001 14.9599C21.1001 18.1699 25.7801 20.5899 32.0001 20.5899Z" fill="black"/>
</svg>
