<?xml version="1.0" encoding="UTF-8" standalone="no"?> <svg xmlns="http://www.w3.org/2000/svg" viewBox="0 0 64 64"><g id="Layer_12" data-name="Layer 12"><path d="M56.45,15C55.78-.87,8.21-.86,7.55,15V49c0,6.71,10.73,12,24.42,12H32c13.27,0,23.75-4.93,24.39-11.32.08-.21,0-34.1,0-34.34S56.45,15.09,56.45,15ZM32,5C44.17,5,54.45,9.56,54.45,15s-10.28,10-22.45,10S9.55,20.36,9.55,15,19.83,5,32,5ZM48.63,55.65V34.77a1,1,0,0,0-2,0V56.52a34.13,34.13,0,0,1-5.81,1.64V36.94a1,1,0,0,0-2,0V58.5A45.08,45.08,0,0,1,33,59V37.57a1,1,0,1,0-2,0V59a45.08,45.08,0,0,1-5.82-.48V36.94a1,1,0,0,0-2,0V58.16a34.13,34.13,0,0,1-5.81-1.64V34.77a1,1,0,0,0-2,0V55.65c-3.6-1.78-5.82-4.1-5.82-6.61v-22c7.86,9.44,37.05,9.44,44.9,0V49C54.45,51.55,52.23,53.87,48.63,55.65Zm5.82-33.39c0,5.4-10.28,10-22.45,10S9.55,27.66,9.55,22.26V19.78c7.86,9.45,37.05,9.44,44.9,0Z"/><path d="M32,20.59c6.22,0,10.9-2.42,10.9-5.63-.12-7.45-21.69-7.45-21.8,0C21.1,18.17,25.78,20.59,32,20.59Zm0-9.26c5.1,0,8.9,1.92,8.9,3.63s-3.8,3.63-8.9,3.63S23.1,16.68,23.1,15,26.9,11.33,32,11.33Z"/></g></svg>