<?xml version="1.0" encoding="iso-8859-1"?>
<!-- Generator: Adobe Illustrator 16.0.0, SVG Export Plug-In . SVG Version: 6.00 Build 0)  -->
<!DOCTYPE svg PUBLIC "-//W3C//DTD SVG 1.1//EN" "http://www.w3.org/Graphics/SVG/1.1/DTD/svg11.dtd">
<svg version="1.1" id="Capa_1" xmlns="http://www.w3.org/2000/svg" xmlns:xlink="http://www.w3.org/1999/xlink" x="0px" y="0px"
	 width="467.908px" height="467.907px" viewBox="0 0 467.908 467.907" style="enable-background:new 0 0 467.908 467.907;"
	 xml:space="preserve">
<g>
	<path d="M319.006,54.39c-20.507-2.272-32.226-5.829-44.626-9.586c-15.112-4.579-30.85-9.285-62.418-11.833V19.012h-0.243
		c0.061-0.401,0.243-0.74,0.243-1.16c0-23.802-72.375-23.802-72.375,0c0,0.672,0.245,1.251,0.369,1.886V33.75
		c-23.389,7.962-22.276,33.335-21.306,50.783c0.42,7.164,0.784,13.922-0.168,18.741c-3.407,17.256-39.784,100.144-53.51,130.622
		l-0.602,136.073c0,36.847,26.367,97.938,54.414,97.938h209.79c56.22,0,74.963-81.165,74.963-102.955V168.941
		C403.532,68.233,320.103,54.549,319.006,54.39z M176.243,10.119c0.81,0,1.601,0.009,2.395,0.051
		c10.382,0.501,17.961,3.825,21.86,6.825c-4.195,3.246-12.65,6.905-24.255,6.905c-11.616,0-20.052-3.659-24.275-6.905
		C156.191,13.773,164.626,10.119,176.243,10.119z M389.75,364.952c0,21.501-18.388,89.174-61.176,89.174H118.779
		c-15.067,0-40.627-47.828-40.627-84.152V238.208c5.974-13.304,49.669-111.016,53.865-132.27c1.286-6.513,0.866-14.123,0.416-22.185
		c-1.05-18.524-0.497-29.615,7.386-34.992c1.118,11.112,18.528,16.158,35.962,16.158c17.371,0,34.709-5.017,35.943-16.034h0.243
		v-2.061c29.36,2.424,44.192,6.87,58.408,11.17c12.461,3.769,25.333,7.675,46.849,10.06c2.959,0.438,72.53,11.898,72.53,100.881
		v196.016H389.75z M333.204,97.552c-23.242-18.605-40.108-19.131-46.27-5.722c-5.815,12.643,1.027,33.722,11.253,45.651
		c5.707,6.193,28.707,43.915,43.287,68.494c6.086,7.82,11.546,11.456,17.128,11.456c3.263,0,6.249-1.295,8.62-3.743
		c5.782-5.948,6.305-17.38,6.109-23.436C373.322,136.213,335.257,99.477,333.204,97.552z M357.87,203.174
		c-0.976-0.616-2.684-1.993-5.026-4.942c-3.664-6.203-35.993-60.847-44.347-69.908c-7.981-9.313-11.687-24.948-9.018-30.735
		c0.453-1.022,0.91-1.452,2.465-1.452c2.23,0,8.904,1.186,22.196,11.794c0.364,0.336,35.4,34.142,35.4,82.54
		C359.759,197.091,358.709,201.333,357.87,203.174z M237.573,191.304c-1.118-0.742-2.44-1.134-3.78-1.134h-65.477
		c-2.107,0-4.112,0.971-5.43,2.644l-37.906,48.241c-0.952,1.218-1.482,2.712-1.482,4.257v151.643c0,3.799,3.087,6.884,6.891,6.884
		h152.793c3.812,0,6.889-3.085,6.889-6.884V245.312c0-2.315-1.148-4.48-3.09-5.764L237.573,191.304z M276.293,390.061H137.275
		V247.696l34.39-43.738h60.061l44.563,45.068v141.034H276.293z M319.203,214.63c1.736,3.393,0.354,7.542-3.034,9.262
		c-0.998,0.497-2.067,0.74-3.099,0.74c-2.524,0-4.951-1.391-6.16-3.785c-0.401-0.807-41.799-80.971-109.91-92.819
		c-3.762-0.648-6.275-4.214-5.617-7.971c0.661-3.757,4.273-6.38,7.967-5.601C274.361,127.477,317.401,211.078,319.203,214.63z
		 M319.949,349.368h53.401v3.641h-53.401V349.368z M319.949,307.141h53.401v3.636h-53.401V307.141z M319.949,342.563h53.401v1.82
		h-53.401V342.563z M319.949,303.817h53.401v1.815h-53.401V303.817z M319.949,314.711h53.401v1.811h-53.401V314.711z
		 M319.949,323.634h53.401v1.83h-53.401V323.634z M319.949,334.405h53.401v3.622h-53.401V334.405z M319.949,318.5h53.401v3.627
		h-53.401V318.5z M319.949,331.362h53.401v1.82h-53.401V331.362z M319.949,298.974h53.401v1.801h-53.401V298.974z M319.949,290.806
		h53.401v3.612h-53.401V290.806z M319.949,287.772h53.401v1.82h-53.401V287.772z M212.025,285.858c0,8.56-2.39,17.67-7.122,27.326
		c-4.744,9.656-10.676,17.595-17.791,23.807c-7.112,6.198-13.826,9.297-20.105,9.297c-4.889,0-8.919-2.059-12.088-6.193
		c-3.173-4.111-4.77-9.418-4.77-15.924c0-6.902,1.377-13.908,4.145-20.988c2.782-7.08,6.385-13.395,10.825-18.957
		c4.453-5.545,7.981-9.031,10.59-10.455c2.613-1.423,6.434-2.142,11.465-2.142v0.816c-7.834,7.463-13.516,15.42-17.065,23.858
		c-3.547,8.447-5.32,16.577-5.32,24.409c0,5.021,0.989,8.979,2.991,11.892c2.002,2.902,4.695,4.358,8.088,4.358
		c6.809,0,13.906-5.964,21.261-17.865c7.383-11.91,11.068-22.967,11.068-33.132c0-3.023-0.476-5.432-1.465-7.229
		c-0.98-1.773-2.271-2.68-3.885-2.68c-2.978,0-5.745,2.264-8.308,6.758c-2.546,4.509-3.817,8.509-3.817,12.022
		c0,2.502,1.155,3.921,3.498,4.229c0.966,0.094,1.454,0.565,1.454,1.387c0,1.507-0.779,3.001-2.338,4.457
		c-1.549,1.465-3.173,2.193-4.86,2.193c-2.075,0-3.804-0.925-5.195-2.81c-1.405-1.872-2.098-4.215-2.098-7.029
		c0-5.95,2.247-11.714,6.718-17.286c4.49-5.559,9.061-8.345,13.751-8.345c3.197,0,5.71,1.27,7.565,3.794
		C211.087,277.943,212.025,281.435,212.025,285.858z M228.036,283.235c1.853,0,3.694-0.676,5.514-2.016
		c0,8.251-3.045,12.377-9.128,12.377c-2.947,0-5.477-0.896-7.575-2.688c1.988-3.01,3.538-6.417,4.628-10.202
		C224.188,282.382,226.372,283.235,228.036,283.235z M228.79,330.519c0,1.017,0.245,1.814,0.354,2.771
		c-0.315,0.252-0.716,0.672-0.989,0.863c-1.354,0.985-2.695,1.466-4.04,1.466c-0.753,0-1.391-0.35-1.892-1.055
		c-0.502-0.71-0.754-1.629-0.754-2.754c0-2.86,1.085-7.626,3.206-14.29l5.162-16.139h-0.623l-13.103,2.734
		c-4.952,12.965-7.432,23.103-7.432,30.43c0,3.402,0.77,6.235,2.284,8.48c1.51,2.244,3.379,3.374,5.563,3.374
		c3.22,0,7.794-2.88,13.63-8.345c0.535,1.428,1.118,2.828,2.002,3.957c2.256,2.856,5.218,4.285,8.888,4.285
		c3.197,0,6.566-1.022,10.071-3.066c3.529-2.049,7.646-5.223,12.303-9.517v-5.923c-4.279,4.225-7.49,7.016-9.586,8.359
		c-2.101,1.335-4.07,2.007-5.918,2.007s-3.295-0.873-4.396-2.623c-1.105-1.765-1.643-4.135-1.643-7.122
		c0-1.344,0.131-3.789,0.401-7.374c6.879-7.463,11.929-14.478,15.158-21.048c3.239-6.553,4.85-13.349,4.85-20.349
		c0-2.483-0.304-4.448-0.938-5.913c-0.648-1.452-1.451-2.194-2.45-2.194c-0.229,0-0.513,0.08-0.942,0.21l-13.082,4.845
		c-4.471,8.522-8.266,17.838-11.393,27.946C230.348,314.632,228.79,323.298,228.79,330.519z M250.821,286.96
		c2.417-6.338,4.284-9.502,5.539-9.502c0.598,0,1.078,0.393,1.452,1.157c0.368,0.766,0.574,1.802,0.574,3.09
		c0,4.331-1.377,9.502-4.084,15.532c-2.707,6.016-6.245,11.453-10.613,16.316C246.027,302.146,248.394,293.294,250.821,286.96z"/>
</g>
<g>
</g>
<g>
</g>
<g>
</g>
<g>
</g>
<g>
</g>
<g>
</g>
<g>
</g>
<g>
</g>
<g>
</g>
<g>
</g>
<g>
</g>
<g>
</g>
<g>
</g>
<g>
</g>
<g>
</g>
</svg>
