<?xml version="1.0" encoding="UTF-8" standalone="no"?> <svg xmlns="http://www.w3.org/2000/svg" viewBox="0 0 64 64"><g id="Layer_43" data-name="Layer 43"><path d="M60.94,29.14a1.08,1.08,0,0,0-.23-1c-16.56-17-40.86-17-57.42,0a1.08,1.08,0,0,0-.11,1.28l9.64,13.95a1.74,1.74,0,0,0,.42.34,1.13,1.13,0,0,0,.83,0,41.62,41.62,0,0,1,17.8-4.08.39.39,0,0,0,.26,0c1.27,0,2.54.08,3.81.2l-2.32,2.32a3.45,3.45,0,0,0-4.07,5.48c2.77,2.79,7.38-.62,5.49-4.07l3.41-3.41A42.43,42.43,0,0,1,50,43.72a1,1,0,0,0,1.2-.35l9.64-13.95A2.36,2.36,0,0,0,60.94,29.14ZM33,46.22A1.47,1.47,0,0,1,31,44.15,1.47,1.47,0,0,1,33,46.22ZM48.33,28.85a1,1,0,0,0-1.41,0L37.74,38A41.84,41.84,0,0,0,33,37.66v-1a1,1,0,0,0-2,0v1a43.6,43.6,0,0,0-17,3.89L5.3,29c15.57-15.45,37.83-15.45,53.4,0L50,41.55a44.17,44.17,0,0,0-9.84-3.13l8.16-8.15A1,1,0,0,0,48.33,28.85Z"/><path d="M32,29a1,1,0,0,0-1,1v3.32a1,1,0,0,0,2,0V30A1,1,0,0,0,32,29Z"/><path d="M24,21.88c-1.57-.57-1.84,1.76-1.88,2.84a1,1,0,0,0,1,1c1.36,0,.81-1.68,1.34-2.5A1,1,0,0,0,24,21.88Z"/><path d="M29.54,19.65c-1.16-.52-5-.75-4.53,1.3a1,1,0,0,0,.93.64,4.29,4.29,0,0,1,2.87-.07A1,1,0,0,0,29.54,19.65Z"/><path d="M32.88,21.88a1,1,0,0,0-.88,0,1,1,0,0,0-1.34,1.31,3.5,3.5,0,0,1,.34,1.5v2a1,1,0,0,0,2,0v-2C32.88,23.74,34.09,22.52,32.88,21.88Z"/><path d="M38.41,19.65c-1.16-.52-5-.75-4.52,1.3a1,1,0,0,0,1.29.57,3.48,3.48,0,0,1,2.5,0A1,1,0,0,0,38.41,19.65Z"/><path d="M40,21.88c-1.21.64,0,1.86-.12,2.84a1,1,0,1,0,2,0C41.83,23.64,41.55,21.31,40,21.88Z"/></g></svg>