<svg xmlns="http://www.w3.org/2000/svg" xmlns:xlink="http://www.w3.org/1999/xlink" version="1.1" id="_x3C_Layer_x3E_" x="0px" y="0px" width="150px" height="150px" viewBox="0 0 153.8 39.1" style="enable-background:new 0 0 153.8 39.1;" xml:space="preserve">
<style type="text/css">

    .st0{fill:#000;}
    .st1{fill:#000;}
    .st2{fill:#fff;}
    .st3{fill:none;}
    .st4{fill:#000;}

</style>
<g>
    <g>
        <path class="st4" d="M153.8 0H27.2c-4.4 0-6.7 0-9.1 0.3C12.5 1 7.6 3.4 4.6 6.9C1.6 10.5 0 14.9 0 19.5c0 5.3 2.1 10.3 5.9 14 c2.8 2.8 6.5 4.5 11.2 5.2c3.1 0.5 6.2 0.4 9 0.4l1.9 0h115.3L153.8 0L153.8 0z"/>
        <path class="st2" d="M142.6 38.2H28c-7.6 0-15.5 0.5-21.5-5.3C3 29.5 0.9 24.8 0.9 19.5c0-4.6 1.6-8.8 4.4-12.1 c3.1-3.7 8-5.7 12.9-6.3c2.5-0.3 4.8-0.3 9-0.3h125.4L142.6 38.2z"/>
    </g>
    <path class="st0" d="M134.5 26.4c-0.1 0.5-0.2 1-0.2 1.4c0 1.2 0.9 1.4 1.8 1.4h1.9l-0.8 3.3h-3.8c-1.2 0-2.2-0.1-2.7-0.3 c-1.3-0.5-2.1-1.7-2.1-3.4c0-0.8 0.2-1.6 0.3-2.4c0.2-1 5.4-19.6 5.4-19.6l5.9-1.1C140.2 5.6 134.6 25.5 134.5 26.4z M102.2 11.5 h-4.1l1.6-5.9l-5.9 1l-1.3 5h-2l-0.9 3.3h2c0 0-3.2 11.5-3.4 12.4c-0.2 0.6-0.3 1.4-0.3 2c0 1.5 1 2.6 2.3 3 c0.5 0.2 1.3 0.2 2.3 0.2h4.1l0.9-3.3h-2.1c-0.9 0-1.8-0.1-1.8-1.2c0-0.3 0.1-0.6 0.1-1c0.1-0.5 3.4-12.2 3.4-12.2h4.1L102.2 11.5z M89 11.4c-1.4-0.4-3-0.6-4.5-0.6c-4.3 0-8.9 2.3-9 7.2c0 4.4 5.3 5.9 5.3 8.4c0 2-1.8 2.8-3.6 2.8c-1.4 0-2.9-0.2-4.3-0.6L72 32 c1.8 0.6 4 0.8 5.9 0.8c4.4 0 8.4-2.5 8.5-7.3c0-4.7-5-5.7-5-8.4c0-2.1 2.1-2.7 3.8-2.7c0.9 0 1.9 0.1 2.8 0.3L89 11.4z M58.1 10.4 c0-3.8-2.6-5.1-6-5.1c-3.5 0-6.4 1.6-8.7 4.3c-3.1 3.7-5.7 11.6-5.7 16.4c0 5 2.1 7.5 7.2 7.5c7.1 0 8.8-5.8 10.5-11.5l-6.1 1.2 c-0.5 1.6-1.7 6.3-3.9 6.3c-1.3 0-1.6-1.2-1.6-2.3c0-3.2 1.9-9.4 3.1-12.4c0.6-1.6 2.2-5.3 4.3-5.3c0.5 0 0.8 0.3 1 0.5 c0.2 0.3 0.3 0.6 0.3 1.1c0 0.2 0 0.7-0.1 1c-0.1 0.8-1.3 4.8-1.3 4.8l5.9-1C57.4 14.1 58.1 12.1 58.1 10.4z M115.1 11.4 c-0.9-0.5-2.3-0.6-3.5-0.6c-2.4 0-5.3 0.4-7.4 1.5l-5.6 20.1h5.6l4.8-17.5c0.8-0.3 1.7-0.4 2.5-0.4c0.7 0 1.1 0 1.5 0.1L115.1 11.4 z M73.4 19.1L69.8 32c-2.5 0.7-5.1 1-7.7 1c-3.3 0-6.6-1.6-6.6-5.3c0-6.5 7-8.3 12.2-8.8c0.3-0.8 0.5-1.7 0.5-2.6 c0-1.5-1.3-1.8-2.5-1.8c-1.7 0-4.1 0.5-5.7 1l0.9-3.5c1.8-0.8 4.4-1.1 6.4-1.1c3.1 0 6.5 1 6.5 4.8C73.9 16.8 73.7 17.9 73.4 19.1z M61.4 27c0 1.3 0.6 2.3 2 2.3c0.5 0 1 0 1.6-0.1l1.9-6.9C64.2 22.6 61.4 23.9 61.4 27z M127.2 23.9c-1.8 5-4.8 9.1-10.6 9.1 c-4 0-6.3-2-6.3-6.1c0-1.8 0.5-3.8 1-5.5c1.6-4.8 5.2-10.5 10.9-10.5c4.3 0 6.3 2.2 6.3 6.4C128.6 19.3 127.9 21.9 127.2 23.9z M122 14.5c-0.6 0-1 0.3-1.5 0.7c-1.5 1.4-3.2 5.8-4 9.2c-0.4 1.6-0.6 2.5-0.6 3.5c0 0.9 0.4 1.4 1.1 1.4c0.6 0 1.2-0.4 1.6-0.8 c0.8-0.8 1.3-1.9 1.9-3.4c1.4-3.4 2.5-7.8 2.5-9.2C123.1 15.2 122.8 14.5 122 14.5z"/>
    <g>
        <path class="st1" d="M16.4 17.7c0.2 0 0.4 0.2 0.4 0.4c0 0.2-0.2 0.4-0.4 0.4h-1c-0.2 0-0.4-0.2-0.4-0.4c0-0.2 0.2-0.4 0.4-0.4 H16.4z M14.4 16.7H15c0.1 0 0.3 0.1 0.3 0.3c0 0.1-0.1 0.3-0.3 0.3h-0.6c-0.1 0-0.3-0.1-0.3-0.3C14.1 16.8 14.2 16.7 14.4 16.7z M12.5 17.8h0.6c0.1 0 0.3 0.1 0.3 0.3c0 0.1-0.1 0.3-0.3 0.3h-0.6c-0.1 0-0.3-0.1-0.3-0.3C12.3 17.9 12.4 17.8 12.5 17.8z M11.3 16.7h0.6c0.1 0 0.3 0.1 0.3 0.3c0 0.1-0.1 0.3-0.3 0.3h-0.6c-0.1 0-0.3-0.1-0.3-0.3C11.1 16.8 11.2 16.7 11.3 16.7z M10.6 21.6H10c-0.1 0-0.3-0.1-0.3-0.3c0-0.1 0.1-0.2 0.3-0.2h0.6c0.1 0 0.2 0.1 0.2 0.2C10.9 21.5 10.8 21.6 10.6 21.6z M11.3 19.4h-0.6c-0.1 0-0.3-0.1-0.3-0.2c0-0.1 0.1-0.2 0.3-0.2h0.6c0.1 0 0.3 0.1 0.3 0.2C11.6 19.3 11.4 19.4 11.3 19.4z M12.5 20.5h-0.6c-0.1 0-0.2-0.1-0.2-0.2c0-0.1 0.1-0.3 0.2-0.3h0.6c0.1 0 0.3 0.1 0.3 0.3C12.7 20.4 12.6 20.5 12.5 20.5z M13.7 21.6h-0.6c-0.1 0-0.2-0.1-0.2-0.3c0-0.1 0.1-0.2 0.2-0.2h0.6c0.1 0 0.3 0.1 0.3 0.2C13.9 21.5 13.8 21.6 13.7 21.6z M13.7 19.4c-0.1 0-0.2-0.1-0.2-0.2c0-0.1 0.1-0.2 0.2-0.2h0.6c0.1 0 0.2 0.1 0.2 0.2c0 0.1-0.1 0.2-0.2 0.2H13.7z M14.8 20.6 c-0.2 0-0.4-0.2-0.4-0.4c0-0.2 0.2-0.4 0.4-0.4h1c0.2 0 0.4 0.2 0.4 0.4c0 0.2-0.2 0.4-0.4 0.4H14.8z"/>
        <path class="st3" d="M22.7 17.3h0.7c0.2 0 0.3-0.1 0.3-0.3s-0.1-0.3-0.3-0.3h-0.7c-0.2 0-0.3 0.1-0.3 0.3S22.6 17.3 22.7 17.3z"/>
        <path class="st3" d="M20.4 18.4h1.1c0.2 0 0.4-0.2 0.4-0.4c0-0.2-0.2-0.4-0.4-0.4h-1.1c-0.2 0-0.4 0.2-0.4 0.4 C20 18.3 20.2 18.4 20.4 18.4z"/>
        <path class="st3" d="M21.3 20.2c0-0.2-0.2-0.4-0.4-0.4h-1.1c-0.2 0-0.4 0.2-0.4 0.4c0 0.2 0.2 0.4 0.4 0.4h1.1 C21.1 20.6 21.3 20.5 21.3 20.2z"/>
        <path class="st3" d="M19 19.7c0.3 0 0.5-0.2 0.5-0.5c0-0.3-0.2-0.6-0.5-0.6h-0.8l-0.3 1.1H19z"/>
        <path class="st3" d="M24.1 18.3h0.7c0.2 0 0.3-0.1 0.3-0.3c0-0.2-0.1-0.3-0.3-0.3h-0.7c-0.2 0-0.3 0.1-0.3 0.3 C23.8 18.2 24 18.3 24.1 18.3z"/>
        <path class="st3" d="M22.1 21h-0.7c-0.2 0-0.3 0.1-0.3 0.3s0.1 0.3 0.3 0.3h0.7c0.2 0 0.3-0.1 0.3-0.3S22.3 21 22.1 21z"/>
        <path class="st3" d="M26.2 18.8h-0.7c-0.2 0-0.3 0.1-0.3 0.3c0 0.2 0.1 0.3 0.3 0.3h0.7c0.2 0 0.3-0.1 0.3-0.3 C26.5 19 26.4 18.8 26.2 18.8z"/>
        <path class="st3" d="M22.8 18.8h-0.7c-0.2 0-0.3 0.1-0.3 0.3c0 0.2 0.1 0.3 0.3 0.3h0.7c0.2 0 0.3-0.1 0.3-0.3 C23.1 19 22.9 18.8 22.8 18.8z"/>
        <path class="st3" d="M26.8 16.7h-0.7c-0.2 0-0.3 0.1-0.3 0.3s0.1 0.3 0.3 0.3h0.7c0.2 0 0.3-0.1 0.3-0.3S27 16.7 26.8 16.7z"/>
        <path class="st3" d="M24.2 19.9h-0.7c-0.2 0-0.3 0.1-0.3 0.3c0 0.2 0.1 0.3 0.3 0.3h0.7c0.2 0 0.3-0.1 0.3-0.3 C24.5 20.1 24.3 19.9 24.2 19.9z"/>
        <path class="st3" d="M25.5 21h-0.7c-0.2 0-0.3 0.1-0.3 0.3s0.1 0.3 0.3 0.3h0.7c0.2 0 0.3-0.1 0.3-0.3S25.7 21 25.5 21z"/>
        <path class="st0" d="M12.5 18.3h0.6c0.1 0 0.3-0.1 0.3-0.3c0-0.1-0.1-0.3-0.3-0.3h-0.6c-0.1 0-0.3 0.1-0.3 0.3 C12.3 18.2 12.4 18.3 12.5 18.3z"/>
        <path class="st0" d="M14.4 17.2H15c0.1 0 0.3-0.1 0.3-0.3c0-0.1-0.1-0.3-0.3-0.3h-0.6c-0.1 0-0.3 0.1-0.3 0.3 C14.1 17.1 14.2 17.2 14.4 17.2z"/>
        <path class="st0" d="M18.8 16.4h-1c-0.3 0-0.5 0.2-0.5 0.5c0 0.3 0.2 0.5 0.5 0.5h0.8L18.8 16.4L18.8 16.4z"/>
        <path class="st0" d="M15.1 18c0 0.2 0.2 0.4 0.4 0.4h1c0.2 0 0.4-0.2 0.4-0.4c0-0.2-0.2-0.4-0.4-0.4h-1 C15.2 17.7 15.1 17.8 15.1 18z"/>
        <path class="st0" d="M15.9 21.3c0 0.3 0.2 0.5 0.5 0.5h0.8l0.3-1.1h-1.1C16.2 20.8 15.9 21 15.9 21.3z"/>
        <rect x="17.9" y="19.7" class="st0" width="0" height="0"/>
        <path class="st0" d="M16.6 19.1c0 0.3 0.2 0.6 0.5 0.6h0.7l0 0h0l0.3-1.1h0h-1.1C16.9 18.6 16.6 18.8 16.6 19.1z"/>
        <path class="st0" d="M13.7 21.1h-0.6c-0.1 0-0.2 0.1-0.2 0.2c0 0.1 0.1 0.3 0.2 0.3h0.6c0.1 0 0.3-0.1 0.3-0.3 C13.9 21.2 13.8 21.1 13.7 21.1z"/>
        <path class="st0" d="M14.6 19.2c0-0.1-0.1-0.2-0.2-0.2h-0.6c-0.1 0-0.2 0.1-0.2 0.2c0 0.1 0.1 0.2 0.2 0.2h0.6 C14.5 19.4 14.6 19.3 14.6 19.2z"/>
        <path class="st0" d="M16.1 20.2c0-0.2-0.2-0.4-0.4-0.4h-1c-0.2 0-0.4 0.2-0.4 0.4c0 0.2 0.2 0.4 0.4 0.4h1 C16 20.6 16.1 20.4 16.1 20.2z"/>
        <path class="st0" d="M11.3 17.2h0.6c0.1 0 0.3-0.1 0.3-0.3c0-0.1-0.1-0.3-0.3-0.3h-0.6c-0.1 0-0.3 0.1-0.3 0.3 C11.1 17.1 11.2 17.2 11.3 17.2z"/>
        <path class="st0" d="M34.8 16.4h-15c0.2 0.1 0.4 0.3 0.4 0.5c0 0.3-0.2 0.5-0.5 0.5h-1.1l-0.3 1.1h0H19c0.3 0 0.5 0.3 0.5 0.6 c0 0.3-0.2 0.5-0.5 0.5h-1.1l0 0h0l-0.3 1.1h0.8c0.3 0 0.5 0.2 0.5 0.5c0 0.3-0.2 0.5-0.5 0.6h16.5c0.1-0.8 0.2-1.5 0.2-2.3 C35.1 18.5 35 17.4 34.8 16.4z M24.1 17.7h0.7c0.2 0 0.3 0.1 0.3 0.3c0 0.2-0.1 0.3-0.3 0.3h-0.7c-0.2 0-0.3-0.1-0.3-0.3 C23.8 17.9 24 17.7 24.1 17.7z M22.7 16.7h0.7c0.2 0 0.3 0.1 0.3 0.3s-0.1 0.3-0.3 0.3h-0.7c-0.2 0-0.3-0.1-0.3-0.3 S22.6 16.7 22.7 16.7z M20.4 17.6h1.1c0.2 0 0.4 0.2 0.4 0.4c0 0.2-0.2 0.4-0.4 0.4h-1.1c-0.2 0-0.4-0.2-0.4-0.4 C20 17.8 20.2 17.6 20.4 17.6z M19.8 20.6c-0.2 0-0.4-0.2-0.4-0.4c0-0.2 0.2-0.4 0.4-0.4h1.1c0.2 0 0.4 0.2 0.4 0.4 c0 0.2-0.2 0.4-0.4 0.4H19.8z M22.1 21.6h-0.7c-0.2 0-0.3-0.1-0.3-0.3s0.1-0.3 0.3-0.3h0.7c0.2 0 0.3 0.1 0.3 0.3 S22.3 21.6 22.1 21.6z M22.8 19.4h-0.7c-0.2 0-0.3-0.1-0.3-0.3c0-0.2 0.1-0.3 0.3-0.3h0.7c0.2 0 0.3 0.1 0.3 0.3 C23.1 19.3 22.9 19.4 22.8 19.4z M24.2 20.5h-0.7c-0.2 0-0.3-0.1-0.3-0.3c0-0.2 0.1-0.3 0.3-0.3h0.7c0.2 0 0.3 0.1 0.3 0.3 C24.5 20.4 24.3 20.5 24.2 20.5z M25.5 21.6h-0.7c-0.2 0-0.3-0.1-0.3-0.3s0.1-0.3 0.3-0.3h0.7c0.2 0 0.3 0.1 0.3 0.3 S25.7 21.6 25.5 21.6z M26.2 19.4h-0.7c-0.2 0-0.3-0.1-0.3-0.3c0-0.2 0.1-0.3 0.3-0.3h0.7c0.2 0 0.3 0.1 0.3 0.3 C26.5 19.3 26.4 19.4 26.2 19.4z M26.8 17.3h-0.7c-0.2 0-0.3-0.1-0.3-0.3s0.1-0.3 0.3-0.3h0.7c0.2 0 0.3 0.1 0.3 0.3 S27 17.3 26.8 17.3z"/>
        <path class="st0" d="M10.6 21.1H10c-0.1 0-0.3 0.1-0.3 0.2c0 0.1 0.1 0.3 0.3 0.3h0.6c0.1 0 0.2-0.1 0.2-0.3 C10.9 21.2 10.8 21.1 10.6 21.1z"/>
        <path class="st0" d="M12.5 20h-0.6c-0.1 0-0.2 0.1-0.2 0.3c0 0.1 0.1 0.2 0.2 0.2h0.6c0.1 0 0.3-0.1 0.3-0.2 C12.7 20.1 12.6 20 12.5 20z"/>
        <path class="st0" d="M11.3 18.9h-0.6c-0.1 0-0.3 0.1-0.3 0.2c0 0.1 0.1 0.2 0.3 0.2h0.6c0.1 0 0.3-0.1 0.3-0.2 C11.6 19 11.4 18.9 11.3 18.9z"/>
    </g>
    <path class="st4" d="M19.7 4.1c-1.9 0-3.7 0.3-5.3 0.9l-2.5 9h22.3C31.9 8.3 26.3 4.1 19.7 4.1z M10.8 24.2c-1 0-1.8-0.1-2.4-0.4 c-0.9-0.4-1.6-1.3-1.6-2.7c0-1.2 0.3-2.2 0.7-3.6l3-10.3C6.7 10 4.2 14.5 4.2 19.6c0 8.5 6.9 15.4 15.4 15.4 c6.9 0 12.8-4.5 14.7-10.8H10.8z"/>
</g>
</svg>
