<?xml version="1.0" encoding="utf-8"?>
<!-- Generator: Adobe Illustrator 19.0.0, SVG Export Plug-In . SVG Version: 6.00 Build 0)  -->
<svg version="1.1" id="Layer_1" xmlns="http://www.w3.org/2000/svg" xmlns:xlink="http://www.w3.org/1999/xlink" x="0px" y="0px" width="150px" height="150px"
     viewBox="0 0 500 500" style="enable-background:new 0 0 500 500;" xml:space="preserve">
<style type="text/css">
    .st0{fill:#000;}
    .st1{fill:#fafafa;}
</style>
<g id="XMLID_1_">
    <rect id="XMLID_3_" x="67.5" y="200.1" class="st0" width="365" height="99.8"/>
    <polygon id="XMLID_4_" class="st1" points="169.9,216.7 169.9,283.3 146.7,283.3 148,254.2 135.4,283.3 119.9,283.3 115.5,253.8
        108,283.2 84.2,283.2 103.7,216.7 128.9,216.7 132.8,243.8 144.1,216.7     "/>
    <polygon id="XMLID_5_" class="st1" points="299.8,237.8 289.4,237.4 284.1,283.2 258.9,283.2 264.6,237.5 255,237.8 238.9,216.7
        302.1,216.7     "/>
    <path id="XMLID_6_" class="st1" d="M332.1,216.7l-4.7,41.3c-0.1,2.5,1,5,3.2,6.1c2.3,0.9,5.1,0.5,6.9-1.2c1.6-1.4,2.1-3.2,2.6-5.1
        l5.6-41h24.1l-5.2,45.5c-1.1,6.5-4.1,12.6-9.9,16.8c-8.3,6-19.5,7-30.2,5.5c-8.5-1.6-18.3-7.1-21.1-15.8c-1.2-3.1-1-6.9-1-10.3
        l5-41.6H332.1z"/>
    <polygon id="XMLID_7_" class="st1" points="396,262.2 415.8,262.2 410,283.2 367.8,283.2 376.5,216.7 401.6,216.7     "/>
    <path id="XMLID_10_" class="st1" d="M230.8,219.2l2.5,1.9l14.8,19c1.6,3.2,1.7,7.3,1.6,11.1c-0.2,12.7-8.5,24.6-20.2,30
        c-14.2,6.7-33.1,3.6-44.3-7.4c-9.8-9.3-11.8-25.1-6.7-37.2c6-13.5,20.1-21.9,34.6-21.2C219.4,215.5,225.4,216.5,230.8,219.2z
         M215.5,237.4c-5.3-0.7-10.4,1.8-13.1,6.6c-2.3,4-2.9,9.5-0.4,13.6c1.7,3.4,5.3,5.8,9.1,6.1c4.9,0.4,9.3-2,11.8-6.1
        c2.6-3.8,2.8-10.1,0.6-14.3C222.1,240.2,218.7,238,215.5,237.4z"/>
</g>
</svg>
