<?xml version="1.0" encoding="utf-8"?>
<!-- Svg Vector Icons : http://www.onlinewebfonts.com/icon -->
<!DOCTYPE svg PUBLIC "-//W3C//DTD SVG 1.1//EN" "http://www.w3.org/Graphics/SVG/1.1/DTD/svg11.dtd">
<svg version="1.1" xmlns="http://www.w3.org/2000/svg" xmlns:xlink="http://www.w3.org/1999/xlink" x="0px" y="0px" width="150px" height="150px" viewBox="0 0 1000 1000" enable-background="new 0 0 1000 1000" xml:space="preserve">
<metadata> Svg Vector Icons : http://www.onlinewebfonts.com/icon </metadata>
<g><path d="M769.9,769.1c-3.5,0-6.4,0-9.3,0c-63.4,0-126.8,0-190.2,0.3c-5,0-10.6,1.9-14.9,4.6c-20.3,12.8-41.8,17.5-65.7,14.3c-15.4-2.1-29-7.8-42-16c-3.6-2.3-8.8-3-13.2-3.1c-62.4-0.2-124.8-0.1-187.3-0.1c-10.4,0-10.3-0.3-11.2-10.5c-1.6-17-3.8-33.9-6-50.8c-2.2-17.4-4.7-34.8-6.9-52.2c-1.6-13-2.9-26.1-4.7-39.2c-0.3-1.9-2.6-3.9-4.4-5.2c-43.5-31.7-87.1-63.2-130.5-95c-2.4-1.8-4.7-5.2-4.9-8.1c-1.8-23.6-3.4-47.3-4.4-70.9c-2.4-56.3,6.9-110.5,28-162.8c14.5-36,34.3-68.9,57.9-99.3c29.9-38.5,66.3-70.5,107.1-96.8c31.1-20,64.4-36,99.9-47.2c28.1-8.9,56.7-16.1,86.1-18.5c21.7-1.7,43.5-3.2,65.3-2.6c26,0.7,51.7,4.5,77.2,10.5c33.4,7.8,65.5,19.2,96.4,34.1c29.5,14.2,56.8,32.1,81.9,52.8c28.9,23.8,54.4,50.9,76.2,81.7c15.1,21.4,28.5,43.6,39.6,67.2c16.2,34.5,27.5,70.7,33.3,108.4c2.4,15.4,3.8,31,4.4,46.5c0.7,18.3,1.1,36.7-0.1,54.9c-1.1,16.7-4.5,33.3-7.2,49.8c-0.3,1.8-2,3.8-3.6,5C880,548,843,575,806,602c-4.5,3.3-9.6,6.1-13.4,10.1c-2.4,2.5-3.9,6.6-4.4,10.2c-2.8,20.7-5,41.6-7.6,62.3c-2.2,17.9-4.8,35.7-7.1,53.5C772.2,748,771.2,758,769.9,769.1z M780.5,214.9c-64.2,108.2-127,214.2-189.9,320.3c-1-1.1-1.1-1.9-0.8-2.4c12.7-27.3,25.4-54.6,38.1-81.9c10.9-23.3,21.9-46.5,32.6-69.8c18.8-40.9,37.4-81.9,56.2-122.8c10.3-22.5,21.2-44.7,31.4-67.2c1.1-2.3,0.8-6.6-0.7-8.4c-8.2-10.3-16.1-21.2-25.9-29.9c-15.6-14-33.5-24.5-55.7-29.1C626.5,256.4,587.3,389.1,548,521.7c-0.3-6.5,0.5-12.7,1.7-18.9c9.1-45.4,18.4-90.8,27.3-136.2c9.8-50.3,19.2-100.6,28.9-150.9c6.7-34.5,13.6-69,20.1-103.6c0.4-2.4-1-6.4-2.9-7.7c-28.1-18.9-59.9-21.4-92.4-19.7c-4.4,0.2-6.6,3.1-6.9,8c-0.7,15.1-2,30.3-2.8,45.4c-1.1,19.3-2.2,38.6-2.9,57.9c-1.1,29.6-1.9,59.2-3,88.8c-0.8,21.3-1.9,42.5-2.8,63.8c-1.5,37.2-2.9,74.4-4.4,111.5c-0.9,21.8-1.9,43.5-3,65.3c-0.1,2.2-1.1,4.4-2.3,8.5c-1.4-18-2.8-33.8-3.8-49.7c-1.6-27.6-2.9-55.2-4.3-82.8c-1.1-22-2.2-44-3-66c-1.1-28.4-2-56.8-2.9-85.2c-0.5-15.4-1-30.9-1.6-46.3c-0.4-10.5-0.9-21-1.5-31.5c-1.4-24.4-3.3-48.8-4.2-73.3c-0.6-16.3-0.6-14.9-15.9-16.1c-30.1-2.5-58.4,4.7-84.8,19.3c-3.1,1.7-4.5,3.1-3.6,7.4c5.5,26,10.6,52.2,15.8,78.3c10.3,52.3,20.6,104.5,31,156.8c9.2,46.2,18.5,92.3,27.7,138.5c2.4,12,4.7,24,7.1,36.1c-0.5,0.1-1,0.2-1.5,0.4c-39.4-132.3-78.8-264.5-118.1-396.6c-29.3,4.4-66.9,33-81.5,57.8c-1.3,2.3-1.6,6.3-0.5,8.6c20.3,44.3,40.8,88.5,61.3,132.7c15.9,34.4,31.8,68.9,47.7,103.4c16,34.7,32,69.3,48.1,104c0.9,2,1.8,4.1,2.6,6.2c-13.1-18.8-24.7-38.3-36.2-57.9c-36.6-62.2-73-124.5-109.7-186.7c-13.8-23.4-28.1-46.5-42.1-69.8c-2.1-3.5-3.6-5.4-7.7-1.7c-22.2,20.3-38.7,44-45.7,73.8c-3,12.6-3,22.7,7,33.8c24.3,27,46.6,55.9,69.8,84c18.4,22.2,37,44.1,55.4,66.3c19.4,23.3,38.6,46.7,57.9,70.1c3.4,4.2,6.7,8.5,10.1,12.8c-0.5,0.5-1,0.9-1.6,1.4c-71-69.5-142.1-139-213.6-209c-1.5,2.3-2.2,3.2-2.7,4.2c-0.9,1.7-1.8,3.5-2.5,5.3c-13.1,33.3-13,67.4-4.6,101.6c1.2,4.7,4.8,9.7,8.7,12.6c43.2,32.1,86.7,63.9,130.1,95.7c4.4,3.2,7,6.9,7.6,12.5c1.4,13.8,3.5,27.6,5.3,41.4c2.6,19.9,5.5,39.7,7.5,59.6c0.7,6.8,2.4,9.3,9.6,9.3c46.9-0.3,93.9-0.1,140.8-0.3c6.3,0,10.4,1.9,14.2,7c14,19.3,44,19,58.1-0.6c3.4-4.8,7.1-6.4,12.8-6.3c46.9,0.2,93.9,0,140.8,0.3c6.9,0,8.9-2.6,9.4-8.8c0.7-8.8,1.8-17.5,3-26.2c3.3-24.4,6.6-48.8,10.1-73.2c0.7-5,1.8-9.5,6.7-13.1c44.7-32.7,89.1-65.6,133.5-98.6c1.9-1.4,3.6-3.8,4.3-6.1c7-23,7.3-46.7,5.5-70.3c-1.1-15.2-5.6-29.9-13.1-45.2c-71.7,69.8-142.7,139-213.7,208.1c6.6-10.7,14.4-20.2,22.3-29.6c29.8-35.7,59.6-71.2,89.3-107c27.9-33.7,55.8-67.4,83.3-101.4c3-3.7,8.5-6.5,7-13.5c-5.2-23.4-12.4-45.9-27.7-65C798.2,235.7,790.1,226.3,780.5,214.9z"/><path d="M282.3,874.6c-23.5,0-45.8,0-68.4,0c-0.8-4.1-1.4-8.4-2.3-12.6c-1.4-6.5-5.9-9.4-12.2-9.5c-15-0.1-30-0.3-45,0c-9.6,0.2-14,5.3-14.1,15c0,2.5-0.1,4.9,0,7.4c0.3,7.5,4.5,11.8,11.8,12.1c16.6,0.6,33.3,0.6,49.9,1.7c17.9,1.3,35.9,2.9,53.7,5.6c14.8,2.3,25,11.1,26.8,26.8c2,16.7,3.4,33.5-6,48.9c-4.1,6.8-9.7,10.8-17.7,12.6c-37.3,8.5-75.1,4.7-112.7,5.6c-20.1,0.5-39.8-2.4-59.4-6.9c-6.9-1.6-11.4-5.7-14.2-11.5c-5.3-11-6.5-22.8-5.1-35.2c24.8,0,49.2,0,73.6,0c0.6,4,0.8,7.7,1.8,11.1c3.1,10.2,11.7,12.7,20.8,12.8c12.7,0.1,25.4-0.9,38.1-1.4c0.5,0,1-0.1,1.5-0.2c6.9-2,10.8-11.7,9.7-24c-0.9-9.5-5.6-15-13.6-15.2c-21.6-0.6-43.1-0.5-64.7-1.6c-14.1-0.7-28.2-2.1-42.1-4.6c-16.4-3-24-14.8-25.4-30.6c-1-11.5,0.1-22.9,5.4-33.5c7-14,19.8-18.6,33.8-19c40.5-1.1,81-1.6,121.5-1.5c10.5,0,21.1,3,31.4,5.3c13.2,3,18.2,13.5,21,25.2C281.6,862.9,281.6,868.5,282.3,874.6z"/><path d="M322.5,828.3c20,0,39.1,0.1,58.3-0.1c4.6,0,5.3,2.4,5.3,6c0,12.3,0,24.6,0.1,36.8c0,3.1,0,6.2,0,10.6c24.7-10.7,49.4-8.7,74-9.1c11.6-0.2,22.1,3.1,31.9,8.9c7.4,4.3,10.7,11.9,10.9,19.7c0.5,29.2,0.2,58.4,0.2,88.2c-21,0-41.5,0-62.6,0c-0.1-2.6-0.3-4.9-0.3-7.3c0-18.4,0-36.8,0-55.3c-0.1-15.7-5.5-21.2-21-21.6c-6.1-0.1-12.2-0.1-18.2,0.2c-8.2,0.4-14.5,7.1-14.6,15.3c-0.1,20.1-0.2,40.3,0,60.4c0.1,6.4-1.7,9.1-8.8,8.9c-16.4-0.5-32.9-0.3-49.4-0.2c-4.6,0-6.6-1.3-6.6-6.2c0.1-49.9,0.1-99.7,0.2-149.6C321.7,832.4,322.1,830.7,322.5,828.3z"/><path d="M726.4,939.9c-41.6,0-81.4,0-121,0c-1.6,13.8,6.2,24.2,20.7,22.8c7.7-0.7,15.8-0.4,22.9-2.9c4.4-1.5,7.3-7.4,10.9-11.2c1.4-1.4,2.9-3.8,4.4-3.8c19.9-0.1,39.8,0,59.7,0.2c0.4,0,0.8,0.5,1.1,0.8c-4.2,27.8-16.7,37.3-43.7,39.5c-22.1,1.8-44.4,3.2-66.6,2.7c-16.4-0.3-32.8-3.3-49.1-6.1c-11.3-2-18.5-10-21.5-20.9c-6-22.1-6.4-44.5-0.1-66.7c2.1-7.4,6.7-13.4,14.6-15.1c11.8-2.6,23.7-5.5,35.6-6.4c18.5-1.4,37.2-1.9,55.8-1.5c14.8,0.4,29.7,2.1,44.4,4.4c16.5,2.6,27,12.5,29.2,29.5C725.3,916.4,725.6,927.6,726.4,939.9z M660.9,914.9c0.2-9-4-16.4-11.7-17.8c-8.6-1.6-17.7-2.1-26.5-1.6c-12.1,0.7-16.7,6-18.4,19.4C623.1,914.9,641.8,914.9,660.9,914.9z"/><path d="M868.2,989.1c0-53.6,0-106.8,0-160.4c21.7,0,42.9,0,64.9,0c0,53.4,0,106.5,0,160.4C911.9,989.1,890.5,989.1,868.2,989.1z"/><path d="M824.6,989.9c-20,0-39.6,0.1-59.2-0.2c-1.5,0-4.2-3.3-4.2-5c-0.2-50.1-0.1-100.1-0.2-150.2c0-5,2-6.2,6.6-6.2c17.2,0.2,34.4,0.2,51.5,0c4.3-0.1,6.4,1.1,6.4,5.7c-0.1,50.5-0.2,101.1-0.3,151.7C825.3,986.5,825,987.5,824.6,989.9z"/></g>
</svg>
