<?xml version="1.0" encoding="utf-8"?>
<!-- Svg Vector Icons : http://www.onlinewebfonts.com/icon -->
<!DOCTYPE svg PUBLIC "-//W3C//DTD SVG 1.1//EN" "http://www.w3.org/Graphics/SVG/1.1/DTD/svg11.dtd">
<svg version="1.1" xmlns="http://www.w3.org/2000/svg" xmlns:xlink="http://www.w3.org/1999/xlink" x="0px" y="0px" width="150px" height="150px" viewBox="0 0 1000 1000" enable-background="new 0 0 1000 1000" xml:space="preserve">
<metadata> Svg Vector Icons : http://www.onlinewebfonts.com/icon </metadata>
<g><path d="M644.3,347.1c10.8,31.6,33.4,53,55.5,74.6c10.6,10.4,21.7,20.1,32,30.7c32.3,33.5,42.4,73.3,28.8,117.5c-13.7,44.3-45.5,71.3-90.6,80.5c-65,13.2-126.6-25.5-141.3-88.5c-10.3-44.4,2.8-82.7,35.6-114.4c16.6-16.1,33-32.4,48.9-49.2C626.9,383.6,638.5,367.5,644.3,347.1z M589.9,461.4c-16.1,11-27.6,25.7-33,44.7c-3.9,13.6-3.3,27.2,2.5,40.2c4.6,10.3,13.7,16.1,23.5,15.3C577.7,527.9,582.3,494.8,589.9,461.4z"/><path d="M537.8,647.7c-20.8,0-40.4,0.2-59.9-0.3c-2.3-0.1-5-3.6-6.6-6.2c-18.4-28.8-36.6-57.7-54.8-86.5c-1.4-2.2-2.9-4.3-6.2-6.2c0,32.8,0,65.6,0,98.8c-18.2,0-35.1,0-52.8,0c0-78.7,0-157.3,0-236.3c17.2,0,34,0,52.2,0c0,32.4,0,64.7,0,97c0.7,0.2,1.4,0.4,2.1,0.6c1.5-2,3-3.9,4.4-6c18.4-28.5,36.8-56.9,54.9-85.5c3.1-5,6.6-6.7,12.4-6.6c17.2,0.4,34.4,0.1,52.9,0.1c-1.5,2.7-2.5,4.8-3.7,6.6c-23.8,35.5-47.6,71-71.7,106.4c-3.1,4.6-2.9,7.5,0.1,12c23.9,34.5,47.6,69.1,71.3,103.7C534.1,641.6,535.5,644.1,537.8,647.7z"/><path d="M144.3,410.7c17.8,0,34.1,0,51.2,0c0.2,3.5,0.4,6.6,0.4,9.8c0,42,0,84,0.1,125.9c0,6.2,0.4,12.4,1.1,18.5c2.3,20.5,13.2,30.4,32.8,29.8c18.7-0.5,30.1-12.1,31-32.1c0.5-12.9,0.5-25.8,0.5-38.7c0.1-34.4,0-68.9,0-103.3c0-3.2,0.4-6.3,0.6-9.8c17.2,0,33.8,0,51.1,0c0.2,2.6,0.5,5,0.6,7.3c0,48.4,0.2,96.9-0.1,145.3c-0.1,17.4-3.8,34.1-11.9,49.7c-9.7,18.8-25,30.8-45.4,35.7c-19.7,4.7-39.6,4.1-59-1.6c-30.3-8.8-45.3-31-50.7-60.7c-1.5-8.1-2.1-16.6-2.1-24.9c-0.2-47.1-0.1-94.2-0.1-141.3C144.3,417.4,144.3,414.5,144.3,410.7z"/><path d="M10,646.9c0-78.9,0-157.3,0-236.2c17.5,0,34.4,0,52.1,0c0.2,3.7,0.6,7.1,0.6,10.5c0,54.1,0.2,108.2-0.1,162.4c0,7.9,2.2,10,10,9.8c16.9-0.6,33.9-0.2,51.4-0.2c0,18.1,0,35.7,0,53.8C86.2,646.9,48.6,646.9,10,646.9z"/><path d="M876.8,410.9c17.3,0,34.2,0,52.1,0c0,60.4,0,120.8,0,182c20.8,0,40.6,0,61.1,0c0,18.4,0,36,0,54.1c-37.6,0-75.1,0-113.2,0C876.8,568.2,876.8,489.8,876.8,410.9z"/><path d="M789.8,410.8c17.4,0,34,0,51.1,0c0,78.9,0,157.3,0,236.2c-17.1,0-33.7,0-51.1,0C789.8,568.6,789.8,490,789.8,410.8z"/></g>
</svg>
