<?xml version="1.0" encoding="utf-8"?>
<!-- Generator: Adobe Illustrator 15.0.0, SVG Export Plug-In . SVG Version: 6.00 Build 0)  -->
<!DOCTYPE svg PUBLIC "-//W3C//DTD SVG 1.1//EN" "http://www.w3.org/Graphics/SVG/1.1/DTD/svg11.dtd">
<svg version="1.1" id="Layer_1" xmlns="http://www.w3.org/2000/svg" xmlns:xlink="http://www.w3.org/1999/xlink" x="0px" y="0px"
     width="150px" height="150px" viewBox="0 0 841.89 595.28" enable-background="new 0 0 841.89 595.28" xml:space="preserve">
<path fill-rule="evenodd" clip-rule="evenodd" fill="#000" d="M67,332.28c2.457-11.686,7.438-21.949,16.5-30.044
    c9.079-8.109,19.666-13.547,30.833-18.088c154.66-62.884,309.584-125.13,463.821-189.035
    c58.957-24.428,116.338-52.662,174.427-79.185c0.875-0.399,1.616-1.093,2.419-1.648c0.667,0,1.333,0,2,0
    c-0.044,1.59,0.362,3.364-0.2,4.743c-7.907,19.385-15.116,39.115-24.184,57.949c-9.301,19.32-25.031,32.816-45.233,40.18
    c-59.997,21.867-120.036,43.628-180.225,64.961c-126.496,44.836-253.107,89.35-379.631,134.108
    c-5.594,1.979-11.185,4.492-16.093,7.777c-12.199,8.163-14.859,21.167-6.914,33.475c2.938,4.55,6.829,8.613,10.808,12.341
    c39.754,37.251,79.616,74.388,119.463,111.538c1.071,0.999,2.325,1.801,4.551,3.503c-2.309,0.295-3.042,0.47-3.774,0.471
    c-16.994,0.017-33.989-0.052-50.982,0.078c-2.938,0.022-4.425-0.839-5.408-3.699c-3.034-8.825-8.424-16.135-15.012-22.698
    c-21.953-21.873-43.578-44.079-65.784-65.689C84.009,379.328,70.668,364.981,67,344.28C67,340.28,67,336.28,67,332.28z"/>
<path fill-rule="evenodd" clip-rule="evenodd" fill="#000" d="M282,583.28c-9.521-1.354-19.155-2.19-28.519-4.256
    c-5.726-1.263-11.43-3.767-16.464-6.829c-24.147-14.692-23.968-49.146,0.109-63.938c9.128-5.609,19.24-8.279,29.734-9.311
    c18.491-1.818,36.926-1.85,54.756,4.479c22.273,7.904,32.993,27.812,26.169,48.882c-5.053,15.604-17.408,23.127-32.273,26.713
    c-9.305,2.244-18.995,2.895-28.512,4.261C285.333,583.28,283.667,583.28,282,583.28z M284.576,512.672
    c-2.536,0.177-5.543,0.226-8.504,0.619c-10.71,1.424-17.5,7.015-19.245,17.276c-2.036,11.968-2.993,24.123,8.356,32.785
    c1.917,1.464,4.409,2.699,6.759,2.972c6.224,0.723,12.565,1.539,18.771,1.092c13.644-0.983,20.553-7.771,22.055-21.22
    c0.509-4.564,0.314-9.348-0.437-13.886c-1.966-11.884-8.836-17.969-20.825-19.144C289.354,512.956,287.192,512.855,284.576,512.672z
    "/>
<path fill-rule="evenodd" clip-rule="evenodd" fill="#000" d="M776,580.28c-22.799,0-45.598,0-68.843,0c0-3.661,0-6.886,0-10.543
    c2.442-0.314,5.039-0.604,7.622-0.991c2.818-0.423,6.818-0.944,5.939-4.391c-0.817-3.2-4.005-8.114-6.348-8.229
    c-15.126-0.746-30.325-0.752-45.45-0.001c-2.372,0.118-5.532,5.028-6.449,8.256c-1.015,3.572,2.951,4.057,5.767,4.47
    c2.275,0.334,4.567,0.546,7.084,0.839c0,3.453,0,6.701,0,10.182c-16.856,0-33.419,0-50.224,0c0-3.523,0-6.762,0-9.731
    c0.427-0.373,0.556-0.58,0.669-0.572c10.508,0.769,16.027-5.219,20.683-13.822c6.25-11.551,13.626-22.49,20.476-33.719
    c4.023-6.595,2.625-9.131-5.217-9.81c-3.295-0.285-6.575-0.742-10.095-1.147c0-3.524,0-6.763,0-10.568c4.564,0,8.849,0,13.133,0
    c14.663,0,29.331,0.212,43.987-0.106c5.676-0.123,9.326,1.88,12.35,6.591c10.971,17.097,22.727,33.715,33.116,51.151
    c5.335,8.952,12.257,11.883,21.8,11.144C776,572.947,776,576.613,776,580.28z M675.769,541.391c10.78,0,20.61,0,31.198,0
    c-5.505-8.409-10.562-16.136-16.089-24.579C685.651,525.313,680.901,533.041,675.769,541.391z"/>
<path fill-rule="evenodd" clip-rule="evenodd" fill="#000" d="M260.025,333.809c-23.531,6.163-46.686,12.237-69.846,18.291
    c-18.666,4.879-37.354,9.677-55.993,14.655c-3.056,0.816-5.361,0.626-7.61-1.805c-2.596-2.807-5.673-5.166-8.289-7.956
    c-7.662-8.173-6.24-18.916,3.432-24.432c3.863-2.203,8.144-3.791,12.39-5.188c167.144-54.993,334.334-109.847,501.433-164.976
    c22.412-7.395,44.378-16.142,66.553-24.254c1.61-0.589,3.242-1.117,5.043-1.735c0.28,1.18,0.611,1.729,0.464,2.071
    c-9.083,21.016-19.989,41.019-34.282,58.962c-10.486,13.165-24.261,21.532-40.542,25.902
    c-91.56,24.575-183.102,49.213-274.654,73.816c-31.32,8.417-62.654,16.784-93.973,25.204
    C257.421,324.175,256.188,327.256,260.025,333.809z"/>
<path fill-rule="evenodd" clip-rule="evenodd" fill="#000" d="M650.178,244.218c-0.632,1.291-1.104,2.694-1.921,3.856
    c-9.941,14.157-19.537,28.582-30.022,42.326c-10.989,14.407-26.722,20.528-44.157,23.849
    c-81.711,15.558-163.357,31.46-245.025,47.244c-0.653,0.127-1.287,0.345-1.937,0.49c-6.734,1.508-7.937,4.88-3.348,11.207
    c-8.471,1.666-16.644,3.314-24.833,4.878c-41.832,7.986-83.675,15.916-125.492,23.983c-3.895,0.751-6.736,0.294-9.76-2.681
    c-8.292-8.158-16.999-15.896-26.351-24.547c171.199-44.107,341.557-87.999,511.915-131.89
    C649.558,243.362,649.868,243.79,650.178,244.218z"/>
<path fill-rule="evenodd" clip-rule="evenodd" fill="#000" d="M396.912,418.795c-14.246,1.807-28.398,3.602-42.55,5.395
    c-33.197,4.205-66.395,8.406-99.591,12.614c-13.708,1.737-27.408,3.547-41.132,5.146c-1.617,0.188-3.841-0.222-4.979-1.247
    c-10.769-9.703-21.365-19.597-31.993-29.457c-0.32-0.296-0.435-0.813-0.827-1.587c136.526-25.604,272.812-51.164,410.338-76.956
    c-1.339,2.252-1.819,3.463-2.635,4.371c-10.681,11.894-21.023,24.125-32.227,35.508c-13.089,13.299-30.055,18.217-48.146,20.683
    c-33.478,4.563-66.884,9.647-100.307,14.608C394.979,409.044,393.864,411.199,396.912,418.795z"/>
<path fill-rule="evenodd" clip-rule="evenodd" fill="#000" d="M505.101,485.343c-3.026,0-4.683,0-6.34,0
    c-78.935,0-157.869-0.023-236.804,0.07c-3.751,0.005-6.525-0.974-9.27-3.591c-10.944-10.435-22.109-20.636-34.056-31.725
    c7.043-0.892,13.035-1.705,19.04-2.402c35.697-4.144,71.399-8.243,107.096-12.392c21.318-2.478,42.623-5.063,63.951-7.457
    c1.99-0.224,4.458-0.002,6.093,1.005c29.328,18.062,58.563,36.274,87.811,54.466C503.139,483.639,503.575,484.089,505.101,485.343z"
    />
<path fill-rule="evenodd" clip-rule="evenodd" fill="#000" d="M71.044,511.063c0-3.669,0-6.781,0-10.227
    c20.979,0,41.711,0,62.846,0c0,3.345,0,6.562,0,10.194c-2.993,0.392-5.915,0.893-8.858,1.131c-4.191,0.339-6.446,2.534-6.58,6.673
    c-0.138,4.294-0.031,8.597-0.031,13.229c16.609,0,32.818,0,49.541,0c0-4.622,0.167-9.077-0.05-13.515
    c-0.189-3.862-2.439-6-6.379-6.356c-2.974-0.269-5.932-0.706-9.178-1.104c0-3.409,0-6.664,0-10.255c20.978,0,41.87,0,63.075,0
    c0,3.394,0,6.632,0,10.216c-2.898,0.377-5.665,0.911-8.453,1.062c-4.883,0.262-7.261,2.596-7.238,7.563
    c0.063,13.83,0.045,27.66,0.012,41.49c-0.011,4.685,2.198,7.049,6.901,7.338c2.816,0.173,5.609,0.71,8.745,1.128
    c0,3.279,0,6.528,0,10.155c-20.871,0-41.76,0-63.001,0c0-3.207,0-6.445,0-10.159c2.974-0.395,6.047-0.928,9.143-1.183
    c4.282-0.354,6.281-2.79,6.425-6.828c0.147-4.153,0.033-8.315,0.033-12.937c-16.419,0-32.635,0-49.232,0
    c0,4.97-0.443,10.114,0.243,15.104c0.237,1.724,3.059,3.717,5.101,4.418c2.92,1.002,6.208,0.931,9.752,1.369
    c0,3.308,0,6.545,0,10.188c-20.789,0-41.648,0-62.765,0c0-3.402,0-6.64,0-10.114c3.193-0.428,6.125-0.952,9.08-1.185
    c3.986-0.313,6.333-2.421,6.373-6.296c0.148-14.489,0.155-28.982,0.031-43.472c-0.036-4.131-2.539-6.258-6.714-6.543
    C77.06,511.956,74.277,511.472,71.044,511.063z"/>
<path fill-rule="evenodd" clip-rule="evenodd" fill="#000" d="M403.83,569.63c0,3.559,0,6.795,0,10.276
    c-16.753,0-33.203,0-50.083,0c0-3.337,0-6.694,0-10.282c3.213-0.415,6.323-0.869,9.445-1.206c3.972-0.429,6.034-2.612,6.044-6.567
    c0.037-14.331,0.033-28.663,0.005-42.995c-0.008-4.267-2.368-6.307-6.499-6.684c-2.971-0.271-5.926-0.723-9.141-1.125
    c0-3.458,0-6.703,0-10.546c2.216,0,4.161,0,6.105,0c15.666,0.001,31.333,0.107,46.997-0.063c4.78-0.052,8.123,1.597,10.998,5.452
    c12.15,16.293,24.513,32.429,36.803,48.617c0.988,1.302,2.019,2.57,3.705,4.713c0.278-2.109,0.559-3.265,0.563-4.421
    c0.033-10.833,0.051-21.666,0.01-32.498c-0.031-8.158-1.169-9.358-9.281-10.324c-1.979-0.236-3.943-0.604-6.305-0.972
    c0-3.251,0-6.494,0-10.123c16.564,0,33.121,0,50.049,0c0,3.285,0,6.523,0,10.147c-2.664,0.366-5.262,0.789-7.875,1.07
    c-6.297,0.679-7.759,2.074-7.793,8.548c-0.09,17.665-0.038,35.332-0.042,52.997c-0.001,1.969,0,3.937,0,6.352
    c-14.118,0-27.725,0.25-41.306-0.236c-2.379-0.085-5.167-2.86-6.883-5.077c-12.137-15.676-24.043-31.53-36.025-47.326
    c-1.29-1.7-2.597-3.389-4.604-6.007c-0.284,2.183-0.559,3.329-0.563,4.477c-0.034,10.499-0.027,20.999-0.018,31.498
    c0.008,9.479,0.585,10.151,9.718,11.458C399.67,569.043,401.484,569.297,403.83,569.63z"/>
<path fill-rule="evenodd" clip-rule="evenodd" fill="#000" d="M499.159,579.867c0-3.563,0-6.687,0-10.196
    c3.032-0.419,5.94-1.009,8.874-1.182c4.498-0.265,6.808-2.684,6.844-6.957c0.119-14.314,0.101-28.632,0.015-42.947
    c-0.022-3.859-2.02-6.164-6.104-6.472c-2.786-0.209-5.553-0.685-8.532-1.068c0-3.521,0-6.758,0-10.275
    c1.723-0.1,3.18-0.256,4.637-0.257c24.805-0.015,49.621-0.451,74.407,0.217c9.318,0.251,18.946,1.961,27.765,4.966
    c15.536,5.294,23.681,18.235,23.716,34.561c0.035,16.351-8.059,29.123-23.567,34.689c-7.855,2.82-16.45,4.736-24.761,4.928
    c-26.954,0.62-53.932,0.257-80.9,0.261C500.912,580.134,500.272,579.995,499.159,579.867z M546.194,564.506
    c11.438,0,22.249,0.399,33.014-0.138c7.47-0.373,12.703-5.183,13.609-12.47c0.95-7.644,0.815-15.563-0.007-23.239
    c-0.663-6.198-4.947-11.21-11.271-11.86c-11.655-1.198-23.43-1.241-35.345-1.773C546.194,532.349,546.194,548.437,546.194,564.506z"
    />
</svg>
