<?xml version="1.0" standalone="no"?>
<!DOCTYPE svg PUBLIC "-//W3C//DTD SVG 20010904//EN"
 "http://www.w3.org/TR/2001/REC-SVG-20010904/DTD/svg10.dtd">
<svg version="1.0" xmlns="http://www.w3.org/2000/svg"
 width="700.000000pt" height="700.000000pt" viewBox="0 0 700.000000 700.000000"
 preserveAspectRatio="xMidYMid meet">
<metadata>
Created by potrace 1.14, written by Peter Selinger 2001-2017
</metadata>
<g transform="translate(0.000000,700.000000) scale(0.100000,-0.100000)"
fill="#000000" stroke="none">
<path d="M2365 6780 c-85 -21 -93 -29 -246 -220 -432 -540 -763 -1057 -903
-1410 -21 -52 -41 -102 -45 -110 -5 -8 -23 -73 -40 -143 -56 -225 -49 -424 25
-674 192 -650 901 -1065 1539 -903 44 11 85 22 92 23 7 2 16 6 19 10 4 4 14 7
23 7 22 0 204 89 273 134 326 209 544 550 603 941 18 121 12 339 -11 417 -3 9
-6 25 -8 35 -30 152 -176 479 -334 745 -147 246 -443 667 -636 903 -31 39 -71
87 -88 108 -55 68 -98 108 -131 122 -44 18 -96 24 -132 15z"/>
<path d="M3742 5833 c23 -38 48 -78 55 -89 26 -41 132 -252 158 -314 116 -276
199 -619 199 -825 -1 -264 -60 -514 -182 -765 -30 -63 -59 -116 -64 -118 -4
-2 -8 -8 -8 -13 0 -30 -149 -222 -263 -338 -245 -249 -598 -439 -922 -495
-234 -41 -425 -41 -625 -1 -14 3 -37 8 -51 10 -56 10 -197 55 -269 85 -109 46
-109 47 -137 -33 -28 -81 -68 -235 -78 -297 -3 -25 -8 -56 -11 -70 -9 -49 -11
-296 -3 -365 4 -38 10 -88 13 -110 8 -74 46 -239 77 -340 94 -306 254 -582
479 -828 54 -60 162 -164 198 -192 14 -11 39 -32 56 -46 27 -22 178 -127 241
-167 11 -6 79 -41 150 -76 152 -75 352 -148 465 -170 14 -2 61 -12 105 -20
127 -25 207 -31 420 -31 208 1 320 14 490 57 44 11 87 21 95 23 8 2 65 21 125
43 668 240 1170 778 1369 1463 13 47 27 98 29 114 3 17 8 41 11 55 3 13 8 40
11 60 3 20 7 45 9 56 18 92 27 378 15 449 -4 22 -10 60 -14 85 -20 143 -113
429 -197 609 -85 183 -133 279 -179 363 -28 51 -62 111 -74 134 -70 126 -373
605 -395 624 -3 3 -22 30 -43 60 -63 94 -304 429 -317 440 -3 3 -59 75 -125
160 -178 231 -424 530 -655 794 -39 45 -97 77 -152 83 l-50 6 44 -70z"/>
</g>
</svg>
